<?xml version="1.0" encoding="UTF-8"?>
<svg id="a" data-name="图层 1" xmlns="http://www.w3.org/2000/svg" viewBox="0 0 154.89 26.73">
    <path d="m31.66,14.63v-4.52c0-.8,0-1.25-.02-1.58-.01-.17-.02-.25-.03-.28-.04-.11-.1-.21-.17-.3-.02-.02-.08-.07-.23-.16-.28-.18-.66-.41-1.36-.81l-3.92-2.26c-.69-.4-1.08-.62-1.38-.77-.15-.08-.23-.11-.25-.11-.12-.02-.23-.02-.35,0-.03,0-.1.04-.25.11-.3.15-.68.37-1.38.77l-3.92,2.26c-.69.4-1.08.62-1.36.81-.14.09-.2.14-.23.16-.08.09-.14.19-.17.3,0,.03-.02.11-.03.28-.02.33-.02.78-.02,1.58v4.52c0,.8,0,1.25.02,1.58.01.17.02.25.03.28.04.11.1.21.17.3.02.02.08.07.23.16.28.18.66.41,1.36.81l3.92,2.26c.69.4,1.08.62,1.38.77.15.08.23.11.25.11.12.02.23.02.35,0,.03,0,.1-.04.25-.11.3-.15.68-.37,1.38-.77l3.92-2.26c.69-.4,1.08-.62,1.36-.81.14-.09.2-.14.23-.16.08-.09.14-.19.17-.3,0-.03.02-.11.03-.28.02-.33.02-.78.02-1.58Zm-.05,1.87s0,0,0,0c0,0,0,0,0,0Zm-.16.28s0,0,0,0c0,0,0,0,0,0Zm-7.15,4.13s0,0,0,0c0,0,0,0,0,0Zm-.33,0s0,0,0,0c0,0,0,0,0,0Zm-7.15-4.13s0,0,0,0c0,0,0,0,0,0Zm-.16-.28s0,0,0,0c0,0,0,0,0,0Zm0-8.26s0,0,0,0c0,0,0,0,0,0Zm.16-.28s0,0,0,0c0,0,0,0,0,0Zm7.15-4.13s0,0,0,0c0,0,0,0,0,0Zm.33,0s0,0,0,0c0,0,0,0,0,0Zm7.15,4.13s0,0,0,0c0,0,0,0,0,0Zm.16.28s0,0,0,0c0,0,0,0,0,0Zm2.5-2.72c-.48-.53-1.14-.91-2.45-1.67l-3.92-2.26c-1.32-.76-1.97-1.14-2.67-1.29-.62-.13-1.26-.13-1.88,0-.7.15-1.36.53-2.67,1.29l-3.92,2.26c-1.32.76-1.97,1.14-2.45,1.67-.42.47-.74,1.02-.94,1.62-.22.68-.22,1.44-.22,2.96v4.52c0,1.52,0,2.28.22,2.96.2.6.52,1.16.94,1.62.48.53,1.14.91,2.45,1.67l3.92,2.26c1.32.76,1.97,1.14,2.67,1.29.62.13,1.26.13,1.88,0,.7-.15,1.36-.53,2.67-1.29l3.92-2.26c1.32-.76,1.97-1.14,2.45-1.67.42-.47.74-1.02.94-1.62.22-.68.22-1.44.22-2.96v-4.52c0-1.52,0-2.28-.22-2.96-.2-.6-.51-1.15-.94-1.62Z"
          style="fill: #2d9cdb; fill-rule: evenodd;"/>
    <path d="m19.66,14.63v-4.52c0-.8,0-1.25-.02-1.58-.01-.17-.02-.25-.03-.28-.04-.11-.1-.21-.17-.3-.02-.02-.08-.07-.23-.16-.28-.18-.66-.41-1.36-.81l-3.92-2.26c-.69-.4-1.08-.62-1.38-.77-.15-.08-.23-.11-.25-.11-.12-.02-.23-.02-.35,0-.03,0-.1.04-.25.11-.3.15-.68.37-1.38.77l-3.92,2.26c-.69.4-1.08.62-1.36.81-.14.09-.2.14-.23.16-.08.09-.14.19-.17.3,0,.03-.02.11-.03.28-.02.33-.02.78-.02,1.58v4.52c0,.8,0,1.25.02,1.58,0,.17.02.25.03.28.04.11.1.21.17.3.02.02.08.07.23.16.28.18.66.41,1.36.81l3.92,2.26c.69.4,1.08.62,1.38.77.15.08.23.11.25.11.12.02.23.02.35,0,.03,0,.1-.04.25-.11.3-.15.68-.37,1.38-.77l3.92-2.26c.69-.4,1.08-.62,1.36-.81.14-.09.2-.14.23-.16.08-.09.14-.19.17-.3,0-.03.02-.11.03-.28.02-.33.02-.78.02-1.58Zm2.45-9.11c-.48-.53-1.14-.91-2.45-1.67l-3.92-2.26c-1.32-.76-1.97-1.14-2.67-1.29-.62-.13-1.26-.13-1.88,0-.7.15-1.36.53-2.67,1.29l-3.92,2.26c-1.32.76-1.97,1.14-2.45,1.67-.42.47-.74,1.02-.94,1.62-.22.68-.22,1.44-.22,2.96v4.52c0,1.52,0,2.28.22,2.96.2.6.52,1.16.94,1.62.48.53,1.14.91,2.45,1.67l3.92,2.26c1.32.76,1.97,1.14,2.67,1.29.62.13,1.26.13,1.88,0,.7-.15,1.36-.53,2.67-1.29l3.92-2.26c1.32-.76,1.97-1.14,2.45-1.67.42-.47.74-1.02.94-1.62.22-.68.22-1.44.22-2.96v-4.52c0-1.52,0-2.28-.22-2.96-.2-.6-.51-1.15-.94-1.62Z"
          style="fill: #2f80ed; fill-rule: evenodd;"/>
    <path d="m18.14,17.59c.09.05.18.1.28.16l3.25,1.88c-.44.35-1.05.7-2,1.25l-1.53.88-1.53-.88c-.95-.55-1.56-.9-2-1.25l3.25-1.88c.1-.06.19-.11.28-.16Z"
          style="fill: #2f80ed;"/>
    <path d="m21.66,5.1c-.44-.35-1.05-.7-2-1.25l-1.53-.88-1.53.88c-.95.55-1.56.9-2,1.25l3.25,1.88c.1.06.19.11.28.16.09-.05.18-.1.28-.16l3.25-1.88Z"
          style="fill: #2d9cdb;"/>
    <path d="m48.74,20.86c-.2.04-.5.08-.91.14-.39.07-.78.11-1.18.11s-.77-.03-1.1-.08c-.31-.06-.58-.17-.8-.33-.22-.17-.39-.39-.52-.66-.11-.29-.17-.67-.17-1.13V2.93c.2-.04.5-.08.88-.14.4-.07.81-.11,1.21-.11s.76.03,1.07.08c.33.06.61.17.83.33.22.17.39.39.5.69.13.28.19.64.19,1.1v15.97Zm10.03.47c-1.08,0-2.09-.15-3.03-.44-.92-.31-1.73-.77-2.42-1.38-.68-.61-1.22-1.37-1.63-2.29-.39-.92-.58-1.99-.58-3.22s.19-2.25.58-3.11c.4-.88.93-1.6,1.57-2.15.64-.57,1.38-.98,2.2-1.24.83-.28,1.67-.41,2.53-.41.97,0,1.85.15,2.64.44.81.29,1.5.7,2.07,1.21.59.51,1.04,1.13,1.35,1.85.33.72.5,1.5.5,2.34,0,.62-.17,1.1-.52,1.43s-.84.54-1.46.63l-6.8,1.02c.2.61.62,1.06,1.24,1.38.62.29,1.34.44,2.15.44.75,0,1.46-.09,2.12-.28.68-.2,1.23-.43,1.65-.69.29.18.54.44.74.77.2.33.3.68.3,1.05,0,.83-.39,1.44-1.16,1.85-.59.31-1.25.52-1.98.63s-1.42.17-2.07.17Zm-.77-10.82c-.44,0-.83.07-1.16.22-.31.15-.57.34-.77.58-.2.22-.36.48-.47.77-.09.28-.15.56-.17.85l4.71-.77c-.06-.37-.26-.73-.61-1.1-.35-.37-.86-.55-1.54-.55Zm14.95-3.42c1.1,0,2.12.15,3.06.44.95.28,1.77.71,2.45,1.29s1.21,1.33,1.6,2.23c.39.88.58,1.94.58,3.17s-.17,2.2-.5,3.08c-.33.88-.8,1.63-1.4,2.23-.61.59-1.34,1.03-2.2,1.32-.84.29-1.79.44-2.84.44-.79,0-1.52-.12-2.2-.36v4.57c-.18.06-.48.11-.88.17-.4.07-.82.11-1.24.11s-.77-.03-1.1-.08c-.31-.06-.58-.17-.8-.33-.22-.17-.39-.39-.5-.69-.11-.28-.17-.64-.17-1.1v-13.22c0-.5.1-.9.3-1.21.22-.31.51-.6.88-.85.57-.37,1.28-.66,2.12-.88s1.79-.33,2.84-.33Zm.06,10.52c1.89,0,2.84-1.13,2.84-3.39,0-1.18-.24-2.05-.72-2.62-.46-.57-1.13-.85-2.01-.85-.35,0-.66.05-.94.14-.28.07-.51.17-.72.28v6.06c.22.11.46.2.72.28.26.07.53.11.83.11Zm14.6-1.32c0,.48.15.82.44,1.02.31.2.74.3,1.29.3.28,0,.56-.02.85-.06.29-.06.55-.12.77-.19.17.2.3.43.41.69.13.24.19.53.19.88,0,.7-.27,1.27-.8,1.71-.51.44-1.43.66-2.75.66-1.62,0-2.86-.37-3.75-1.1-.86-.73-1.29-1.93-1.29-3.58V4.84c.2-.06.49-.11.85-.17.39-.07.79-.11,1.21-.11.81,0,1.43.15,1.87.44.46.28.69.87.69,1.79v1.76h3.61c.11.2.21.46.3.77.11.29.17.62.17.99,0,.64-.15,1.11-.44,1.4-.28.28-.65.41-1.13.41h-2.51v4.16Zm20.04-2.09c0,1.14-.17,2.16-.52,3.06-.35.88-.84,1.63-1.49,2.23-.62.61-1.38,1.06-2.26,1.38-.88.31-1.86.47-2.95.47s-2.07-.17-2.95-.5-1.64-.8-2.29-1.4c-.62-.62-1.11-1.38-1.46-2.26s-.52-1.87-.52-2.97.17-2.07.52-2.95c.35-.88.84-1.63,1.46-2.23.64-.62,1.4-1.1,2.29-1.43s1.86-.5,2.95-.5,2.07.17,2.95.52c.88.33,1.63.81,2.26,1.43.64.61,1.14,1.35,1.49,2.23.35.88.52,1.85.52,2.92Zm-9.64,0c0,1.12.21,1.98.63,2.59.44.59,1.05.88,1.82.88s1.36-.3,1.76-.91c.42-.61.63-1.46.63-2.56s-.21-1.95-.63-2.53c-.42-.61-1.02-.91-1.79-.91s-1.37.3-1.79.91c-.42.59-.63,1.43-.63,2.53Zm20.41-1.79c0-.57-.17-.98-.5-1.24-.31-.28-.74-.41-1.29-.41-.37,0-.73.05-1.1.14-.35.09-.65.23-.91.41v9.56c-.18.06-.48.11-.88.17-.39.06-.79.08-1.21.08s-.77-.03-1.1-.08c-.31-.06-.58-.17-.8-.33-.22-.17-.39-.39-.52-.66-.11-.29-.17-.67-.17-1.13v-8.26c0-.5.1-.9.3-1.21.22-.31.51-.6.88-.85.62-.44,1.4-.8,2.34-1.07.95-.28,2.01-.41,3.17-.41,2.07,0,3.67.46,4.79,1.38,1.12.9,1.68,2.16,1.68,3.77v8.62c-.18.06-.48.11-.88.17-.39.06-.79.08-1.21.08s-.77-.03-1.1-.08c-.31-.06-.58-.17-.8-.33-.22-.17-.39-.39-.52-.66-.11-.29-.17-.67-.17-1.13v-6.5Zm17-7.71c.31-.18.78-.36,1.4-.52.64-.17,1.29-.25,1.93-.25.92,0,1.73.14,2.42.41.72.26,1.18.67,1.38,1.24.33.95.69,2.07,1.07,3.33.39,1.27.77,2.58,1.16,3.94.39,1.34.76,2.67,1.13,3.99.37,1.3.69,2.46.96,3.47-.22.26-.55.46-.99.61-.44.17-.96.25-1.57.25-.44,0-.82-.04-1.13-.11-.29-.07-.54-.18-.74-.33-.18-.15-.34-.34-.47-.58-.11-.24-.21-.51-.3-.83l-.5-1.9h-4.99c-.15.55-.29,1.12-.44,1.71-.15.59-.29,1.16-.44,1.71-.26.09-.53.17-.83.22-.28.07-.62.11-1.02.11-.94,0-1.63-.16-2.09-.47-.44-.33-.66-.78-.66-1.35,0-.26.04-.51.11-.77.07-.26.16-.56.25-.91.13-.5.3-1.11.52-1.85.24-.73.5-1.52.77-2.37.28-.86.57-1.74.88-2.64.31-.9.61-1.74.88-2.53.28-.81.52-1.52.74-2.15.24-.62.42-1.1.55-1.43Zm3.31,3.55c-.26.77-.55,1.63-.88,2.59-.31.94-.6,1.89-.85,2.86h3.42c-.26-.99-.52-1.96-.8-2.89-.26-.95-.5-1.81-.72-2.56h-.17Zm15.23,12.53c-.2.06-.52.11-.96.17-.42.06-.84.08-1.27.08s-.8-.04-1.13-.11c-.31-.06-.58-.17-.8-.33-.22-.17-.39-.39-.5-.69-.11-.29-.17-.68-.17-1.16V4.2c.2-.04.52-.08.96-.14.44-.07.86-.11,1.27-.11s.79.04,1.1.11c.33.06.61.17.83.33s.39.39.5.69c.11.29.17.68.17,1.16v14.54Z"/>
</svg>