<svg width="32" height="23" viewBox="0 0 32 23" fill="none" xmlns="http://www.w3.org/2000/svg">
<path fill-rule="evenodd" clip-rule="evenodd" d="M25.793 13.082L25.793 9.79217C25.793 9.20983 25.792 8.88588 25.7776 8.64368C25.7704 8.52153 25.7616 8.46299 25.7579 8.44318C25.7305 8.36244 25.6876 8.28785 25.6317 8.22359C25.6165 8.21051 25.5704 8.17356 25.4687 8.1062C25.2671 7.97264 24.9884 7.80974 24.4864 7.51857L21.6503 5.87367C21.1483 5.5825 20.8685 5.42145 20.6526 5.31281C20.5437 5.25802 20.4888 5.23644 20.4699 5.2297C20.3865 5.21322 20.3008 5.21322 20.2175 5.2297C20.1986 5.23644 20.1437 5.25802 20.0348 5.31281C19.8188 5.42145 19.539 5.5825 19.037 5.87367L16.201 7.51857C15.699 7.80974 15.4203 7.97263 15.2186 8.1062C15.1169 8.17356 15.0709 8.21051 15.0556 8.22359C14.9998 8.28785 14.9569 8.36244 14.9294 8.44318C14.9258 8.46299 14.917 8.52152 14.9097 8.64368C14.8954 8.88588 14.8944 9.20983 14.8944 9.79217L14.8944 13.082C14.8944 13.6643 14.8954 13.9882 14.9097 14.2305C14.917 14.3526 14.9258 14.4111 14.9294 14.4309C14.9569 14.5117 14.9998 14.5863 15.0556 14.6505C15.0709 14.6636 15.1169 14.7006 15.2186 14.7679C15.4203 14.9015 15.699 15.0644 16.201 15.3556L19.037 17.0005C19.539 17.2916 19.8188 17.4527 20.0348 17.5613C20.1437 17.6161 20.1986 17.6377 20.2175 17.6444C20.3008 17.6609 20.3865 17.6609 20.4699 17.6444C20.4888 17.6377 20.5437 17.6161 20.6526 17.5613C20.8685 17.4527 21.1483 17.2916 21.6503 17.0005L24.4864 15.3556C24.9884 15.0644 25.2671 14.9015 25.4687 14.7679C25.5704 14.7006 25.6165 14.6636 25.6317 14.6505C25.6876 14.5863 25.7305 14.5117 25.7579 14.4309C25.7616 14.4111 25.7704 14.3526 25.7776 14.2305C25.792 13.9882 25.793 13.6643 25.793 13.082ZM25.7562 14.439C25.7562 14.439 25.7565 14.4374 25.7572 14.4346C25.7566 14.4377 25.7563 14.4391 25.7562 14.439ZM25.6378 14.645C25.6379 14.645 25.6369 14.646 25.6345 14.6481C25.6366 14.6461 25.6378 14.6451 25.6378 14.645ZM20.4621 17.647C20.4622 17.6469 20.4637 17.6464 20.4664 17.6456C20.4634 17.6467 20.462 17.6471 20.4621 17.647ZM20.2253 17.647C20.2254 17.6471 20.224 17.6467 20.2209 17.6456C20.2237 17.6464 20.2252 17.6469 20.2253 17.647ZM15.0495 14.645C15.0497 14.6451 15.0509 14.6462 15.0529 14.6482C15.0504 14.646 15.0494 14.645 15.0495 14.645ZM14.9311 14.439C14.9311 14.4391 14.9308 14.4377 14.9301 14.4346C14.9308 14.4373 14.9312 14.4389 14.9311 14.439ZM14.9311 8.43511C14.9312 8.43518 14.9308 8.43675 14.9301 8.43957C14.9307 8.43644 14.9311 8.43503 14.9311 8.43511ZM15.0495 8.2291C15.0494 8.22912 15.0505 8.22811 15.0529 8.22599C15.0508 8.22802 15.0496 8.22908 15.0495 8.2291ZM20.2253 5.22715C20.2252 5.22721 20.2237 5.22772 20.2209 5.2285C20.224 5.22747 20.2253 5.22708 20.2253 5.22715ZM20.4621 5.22715C20.462 5.22708 20.4634 5.22747 20.4664 5.2285C20.4636 5.22772 20.4621 5.22721 20.4621 5.22715ZM25.6378 8.2291C25.6377 8.22908 25.6365 8.22801 25.6345 8.22597C25.6369 8.22811 25.6379 8.22913 25.6378 8.2291ZM25.7562 8.43511C25.7562 8.43502 25.7566 8.43643 25.7572 8.43957C25.7565 8.43677 25.7562 8.4352 25.7562 8.43511ZM27.5673 6.45951C27.2211 6.07325 26.7451 5.79716 25.793 5.24497L22.957 3.60007C22.005 3.04789 21.5289 2.77179 21.0229 2.66373C20.5751 2.56811 20.1123 2.56811 19.6645 2.66373C19.1584 2.77179 18.6824 3.04789 17.7304 3.60008L14.8944 5.24497C13.9423 5.79716 13.4663 6.07325 13.1201 6.45951C12.8138 6.80128 12.5824 7.2039 12.4409 7.64128C12.281 8.13561 12.281 8.68779 12.281 9.79217L12.281 13.082C12.281 14.1863 12.281 14.7385 12.4409 15.2328C12.5824 15.6702 12.8138 16.0729 13.1201 16.4146C13.4663 16.8009 13.9423 17.077 14.8944 17.6292L17.7304 19.2741C18.6824 19.8262 19.1584 20.1023 19.6645 20.2104C20.1123 20.306 20.5751 20.306 21.0229 20.2104C21.5289 20.1023 22.005 19.8262 22.957 19.2741L25.793 17.6292C26.7451 17.077 27.2211 16.8009 27.5673 16.4146C27.8736 16.0729 28.105 15.6702 28.2464 15.2328C28.4063 14.7385 28.4063 14.1863 28.4063 13.082L28.4063 9.79217C28.4063 8.68779 28.4063 8.13561 28.2464 7.64128C28.105 7.2039 27.8736 6.80128 27.5673 6.45951Z" fill="#2D9CDB"/>
<path fill-rule="evenodd" clip-rule="evenodd" d="M17.1057 13.082L17.1057 9.79217C17.1057 9.20983 17.1046 8.88588 17.0903 8.64368C17.083 8.52153 17.0742 8.46299 17.0706 8.44318C17.0431 8.36244 17.0002 8.28785 16.9444 8.22359C16.9291 8.21051 16.8831 8.17356 16.7814 8.1062C16.5797 7.97264 16.301 7.80974 15.799 7.51857L12.963 5.87367C12.461 5.5825 12.1812 5.42145 11.9652 5.31281C11.8563 5.25802 11.8014 5.23644 11.7825 5.2297C11.6992 5.21322 11.6135 5.21322 11.5301 5.2297C11.5112 5.23644 11.4563 5.25802 11.3474 5.31281C11.1315 5.42145 10.8517 5.5825 10.3497 5.87367L7.51365 7.51857C7.01164 7.80974 6.73291 7.97264 6.53127 8.1062C6.42958 8.17356 6.38354 8.21051 6.36828 8.22359C6.31241 8.28785 6.26954 8.36244 6.24208 8.44318C6.23843 8.46299 6.2296 8.52152 6.22238 8.64368C6.20805 8.88588 6.207 9.20983 6.207 9.79217L6.207 13.082C6.207 13.6643 6.20806 13.9882 6.22238 14.2305C6.22961 14.3526 6.23843 14.4111 6.24208 14.4309C6.26954 14.5117 6.31241 14.5863 6.36828 14.6505C6.38353 14.6636 6.42958 14.7006 6.53127 14.7679C6.73291 14.9015 7.01164 15.0644 7.51365 15.3556L10.3497 17.0005C10.8517 17.2916 11.1315 17.4527 11.3474 17.5613C11.4563 17.6161 11.5112 17.6377 11.5301 17.6444C11.6135 17.6609 11.6992 17.6609 11.7825 17.6444C11.8014 17.6377 11.8563 17.6161 11.9652 17.5613C12.1812 17.4527 12.461 17.2916 12.963 17.0005L15.799 15.3556C16.301 15.0644 16.5797 14.9015 16.7814 14.7679C16.8831 14.7006 16.9291 14.6636 16.9444 14.6505C17.0002 14.5863 17.0431 14.5117 17.0706 14.4309C17.0742 14.4111 17.083 14.3526 17.0903 14.2305C17.1046 13.9882 17.1057 13.6643 17.1057 13.082ZM18.8799 6.45951C18.5337 6.07325 18.0577 5.79716 17.1057 5.24497L14.2696 3.60007C13.3176 3.04789 12.8416 2.77179 12.3355 2.66373C11.8877 2.56811 11.4249 2.56811 10.9772 2.66373C10.4711 2.77179 9.99505 3.04789 9.04301 3.60008L6.207 5.24497C5.25495 5.79716 4.77893 6.07325 4.43273 6.45951C4.12642 6.80128 3.89502 7.2039 3.75356 7.64128C3.59368 8.13561 3.59368 8.68779 3.59368 9.79217L3.59368 13.082C3.59368 14.1863 3.59368 14.7385 3.75356 15.2328C3.89502 15.6702 4.12642 16.0729 4.43274 16.4146C4.77893 16.8009 5.25496 17.077 6.207 17.6292L9.04301 19.2741C9.99505 19.8262 10.4711 20.1023 10.9772 20.2104C11.4249 20.306 11.8877 20.306 12.3355 20.2104C12.8416 20.1023 13.3176 19.8262 14.2696 19.2741L17.1057 17.6292C18.0577 17.077 18.5337 16.8009 18.8799 16.4146C19.1862 16.0729 19.4176 15.6702 19.5591 15.2328C19.719 14.7385 19.719 14.1863 19.719 13.082L19.719 9.79217C19.719 8.68779 19.719 8.13561 19.5591 7.64128C19.4176 7.2039 19.1862 6.80128 18.8799 6.45951Z" fill="#2F80ED"/>
<path d="M16 15.2389C16.0628 15.2754 16.1296 15.3142 16.201 15.3556L18.5532 16.7199C18.2319 16.9759 17.7927 17.2307 17.1056 17.6292L16 18.2704L14.8943 17.6292C14.2073 17.2307 13.7681 16.9759 13.4468 16.7199L15.799 15.3556C15.8704 15.3142 15.9372 15.2754 16 15.2389Z" fill="#2F80ED"/>
<path d="M18.5532 6.15429C18.2319 5.89819 17.7927 5.64348 17.1056 5.24498L16 4.6037L14.8943 5.24498C14.2073 5.64348 13.7681 5.89819 13.4468 6.15429L15.799 7.51858C15.8704 7.55998 15.9372 7.59878 16 7.63528C16.0628 7.59878 16.1296 7.55998 16.201 7.51858L18.5532 6.15429Z" fill="#2D9CDB"/>
</svg>
